<svg width="36" height="36" viewBox="0 0 36 36" fill="none" xmlns="http://www.w3.org/2000/svg">
<path fill-rule="evenodd" clip-rule="evenodd" d="M15.3671 8.4429C13.486 8.4429 11.682 9.20033 10.3519 10.5486C9.02183 11.8968 8.27459 13.7254 8.27459 15.6321C8.27459 17.5388 9.02183 19.3674 10.3519 20.7156C11.682 22.0638 13.486 22.8213 15.3671 22.8213C17.2482 22.8213 19.0522 22.0638 20.3823 20.7156C21.7124 19.3674 22.4596 17.5388 22.4596 15.6321C22.4596 13.7254 21.7124 11.8968 20.3823 10.5486C19.0522 9.20033 17.2482 8.4429 15.3671 8.4429ZM4.72833 15.6321C4.72812 13.9349 5.12311 12.2616 5.88117 10.7484C6.63923 9.23509 7.73897 7.92455 9.09093 6.92333C10.4429 5.9221 12.0089 5.25847 13.6616 4.98639C15.3143 4.71432 17.007 4.84149 18.6021 5.35757C20.1972 5.87364 21.6496 6.76404 22.8411 7.95636C24.0327 9.14868 24.9298 10.6092 25.4595 12.2193C25.9892 13.8293 26.1365 15.5433 25.8894 17.2219C25.6424 18.9005 25.0079 20.4963 24.0377 21.8795L29.5737 27.491C29.8967 27.83 30.0754 28.284 30.0714 28.7552C30.0674 29.2265 29.8809 29.6772 29.5521 30.0105C29.2234 30.3437 28.7787 30.5327 28.3137 30.5368C27.8488 30.5409 27.4009 30.3598 27.0665 30.0324L21.5323 24.4227C19.9406 25.5698 18.0682 26.2508 16.1201 26.3909C14.172 26.531 12.2235 26.1249 10.488 25.217C8.7525 24.3091 7.29704 22.9346 6.2811 21.2439C5.26517 19.5532 4.72795 17.6117 4.72833 15.6321Z" fill="black"/>
</svg>
