<svg width="14" height="13" viewBox="0 0 14 13" fill="none" xmlns="http://www.w3.org/2000/svg">
<path d="M6.74146 1.1217C6.7627 1.07063 6.79859 1.02699 6.8446 0.996297C6.89061 0.9656 6.94468 0.949219 6.99999 0.949219C7.0553 0.949219 7.10938 0.9656 7.15539 0.996297C7.2014 1.02699 7.23729 1.07063 7.25853 1.1217L8.78546 4.79343C8.80521 4.84101 8.83771 4.88222 8.87937 4.91251C8.92103 4.94281 8.97025 4.96103 9.02159 4.96517L12.9864 5.2825C13.0417 5.28675 13.0946 5.30735 13.1382 5.3417C13.1818 5.37605 13.2143 5.42259 13.2314 5.47541C13.2485 5.52823 13.2495 5.58494 13.2343 5.63834C13.2191 5.69173 13.1884 5.73941 13.146 5.7753L10.1267 8.3625C10.0876 8.39593 10.0584 8.43948 10.0425 8.48838C10.0265 8.53728 10.0243 8.58964 10.0361 8.6397L10.9601 12.5084C10.9734 12.5624 10.9702 12.6192 10.951 12.6715C10.9318 12.7237 10.8975 12.7691 10.8524 12.8017C10.8074 12.8344 10.7536 12.8529 10.6979 12.8548C10.6423 12.8567 10.5874 12.8421 10.5401 12.8126L7.14653 10.7388C7.10266 10.7121 7.05229 10.6979 7.00093 10.6979C6.94957 10.6979 6.8992 10.7121 6.85533 10.7388L3.46079 12.8126C3.41357 12.8414 3.35886 12.8556 3.30359 12.8534C3.24831 12.8511 3.19494 12.8326 3.1502 12.8C3.10547 12.7675 3.07138 12.7224 3.05224 12.6705C3.0331 12.6186 3.02977 12.5622 3.04266 12.5084L3.96573 8.6397C3.97756 8.58964 3.97536 8.53728 3.95939 8.48838C3.94342 8.43948 3.91429 8.39593 3.87519 8.3625L0.853993 5.7753C0.811956 5.73934 0.781514 5.69173 0.766509 5.63848C0.751503 5.58523 0.752607 5.52874 0.769682 5.47612C0.786756 5.4235 0.819035 5.37711 0.862445 5.34282C0.905855 5.30853 0.95845 5.28786 1.01359 5.28343L4.97839 4.9661C5.02985 4.96188 5.07913 4.94353 5.1208 4.91305C5.16247 4.88258 5.19491 4.84118 5.21453 4.79343L6.74146 1.1217Z" fill="#EFD269"/>
</svg>
