<svg width="293" height="133" viewBox="0 0 293 133" fill="none" xmlns="http://www.w3.org/2000/svg">
<rect x="1.5" y="1.5" width="290" height="130" rx="11.5" fill="#FEFCFC" stroke="black" stroke-width="3"/>
<g filter="url(#filter0_d_64_868)">
<rect x="89" y="87" width="122" height="30" rx="10" fill="#3E9F6E" shape-rendering="crispEdges"/>
<rect x="90" y="88" width="120" height="28" rx="9" stroke="black" stroke-width="2" shape-rendering="crispEdges"/>
</g>
<path d="M106.46 97.4688V106H104.99V97.4688H106.46ZM109.941 101.201V102.367H106.085V101.201H109.941ZM110.427 97.4688V98.6406H106.085V97.4688H110.427ZM114.893 104.729V101.705C114.893 101.479 114.852 101.283 114.77 101.119C114.688 100.955 114.563 100.828 114.395 100.738C114.231 100.648 114.024 100.604 113.774 100.604C113.544 100.604 113.345 100.643 113.177 100.721C113.009 100.799 112.878 100.904 112.784 101.037C112.69 101.17 112.643 101.32 112.643 101.488H111.237C111.237 101.238 111.298 100.996 111.419 100.762C111.54 100.527 111.716 100.318 111.946 100.135C112.177 99.9512 112.452 99.8066 112.772 99.7012C113.093 99.5957 113.452 99.543 113.85 99.543C114.327 99.543 114.749 99.623 115.116 99.7832C115.487 99.9434 115.778 100.186 115.989 100.51C116.204 100.83 116.311 101.232 116.311 101.717V104.535C116.311 104.824 116.331 105.084 116.37 105.314C116.413 105.541 116.473 105.738 116.552 105.906V106H115.104C115.038 105.848 114.985 105.654 114.946 105.42C114.911 105.182 114.893 104.951 114.893 104.729ZM115.098 102.145L115.11 103.018H114.096C113.835 103.018 113.604 103.043 113.405 103.094C113.206 103.141 113.04 103.211 112.907 103.305C112.774 103.398 112.675 103.512 112.608 103.645C112.542 103.777 112.509 103.928 112.509 104.096C112.509 104.264 112.548 104.418 112.626 104.559C112.704 104.695 112.817 104.803 112.966 104.881C113.118 104.959 113.302 104.998 113.516 104.998C113.805 104.998 114.057 104.939 114.272 104.822C114.491 104.701 114.663 104.555 114.788 104.383C114.913 104.207 114.979 104.041 114.987 103.885L115.444 104.512C115.397 104.672 115.317 104.844 115.204 105.027C115.091 105.211 114.942 105.387 114.759 105.555C114.579 105.719 114.362 105.854 114.108 105.959C113.858 106.064 113.569 106.117 113.241 106.117C112.827 106.117 112.458 106.035 112.134 105.871C111.809 105.703 111.555 105.479 111.372 105.197C111.188 104.912 111.096 104.59 111.096 104.23C111.096 103.895 111.159 103.598 111.284 103.34C111.413 103.078 111.6 102.859 111.846 102.684C112.096 102.508 112.401 102.375 112.761 102.285C113.12 102.191 113.53 102.145 113.991 102.145H115.098ZM112.626 97.6797C112.626 97.457 112.682 97.2559 112.796 97.0762C112.909 96.8926 113.061 96.7461 113.253 96.6367C113.444 96.5273 113.663 96.4727 113.909 96.4727C114.272 96.4727 114.575 96.5918 114.817 96.8301C115.063 97.0645 115.186 97.3477 115.186 97.6797C115.186 97.9023 115.13 98.1035 115.016 98.2832C114.907 98.4629 114.755 98.6055 114.559 98.7109C114.368 98.8125 114.151 98.8633 113.909 98.8633C113.542 98.8633 113.235 98.75 112.989 98.5234C112.747 98.2969 112.626 98.0156 112.626 97.6797ZM113.253 97.6797C113.253 97.8516 113.313 98.0039 113.434 98.1367C113.555 98.2656 113.714 98.3301 113.909 98.3301C114.104 98.3301 114.261 98.2656 114.378 98.1367C114.499 98.0078 114.559 97.8555 114.559 97.6797C114.559 97.5 114.499 97.3457 114.378 97.2168C114.261 97.084 114.104 97.0176 113.909 97.0176C113.714 97.0176 113.555 97.084 113.434 97.2168C113.313 97.3457 113.253 97.5 113.253 97.6797ZM124.67 97.4395V106H123.257V99.1152L121.166 99.8242V98.6582L124.5 97.4395H124.67ZM133.255 101.02V102.414C133.255 103.082 133.189 103.652 133.056 104.125C132.927 104.594 132.739 104.975 132.493 105.268C132.247 105.561 131.952 105.775 131.609 105.912C131.269 106.049 130.888 106.117 130.466 106.117C130.13 106.117 129.817 106.074 129.528 105.988C129.243 105.902 128.985 105.768 128.755 105.584C128.525 105.4 128.327 105.164 128.163 104.875C128.003 104.582 127.878 104.232 127.788 103.826C127.702 103.42 127.659 102.949 127.659 102.414V101.02C127.659 100.348 127.726 99.7812 127.859 99.3203C127.991 98.8555 128.181 98.4785 128.427 98.1895C128.673 97.8965 128.966 97.6836 129.306 97.5508C129.65 97.418 130.032 97.3516 130.454 97.3516C130.794 97.3516 131.107 97.3945 131.392 97.4805C131.681 97.5625 131.939 97.6934 132.165 97.873C132.396 98.0527 132.591 98.2871 132.751 98.5762C132.915 98.8613 133.04 99.207 133.126 99.6133C133.212 100.016 133.255 100.484 133.255 101.02ZM131.843 102.613V100.809C131.843 100.469 131.823 100.17 131.784 99.9121C131.745 99.6504 131.687 99.4297 131.609 99.25C131.534 99.0664 131.441 98.918 131.327 98.8047C131.214 98.6875 131.085 98.6035 130.941 98.5527C130.796 98.498 130.634 98.4707 130.454 98.4707C130.235 98.4707 130.04 98.5137 129.868 98.5996C129.696 98.6816 129.552 98.8145 129.435 98.998C129.317 99.1816 129.228 99.4238 129.165 99.7246C129.107 100.021 129.077 100.383 129.077 100.809V102.613C129.077 102.957 129.097 103.26 129.136 103.521C129.175 103.783 129.234 104.008 129.312 104.195C129.39 104.379 129.484 104.531 129.593 104.652C129.706 104.77 129.835 104.855 129.98 104.91C130.128 104.965 130.29 104.992 130.466 104.992C130.689 104.992 130.886 104.949 131.058 104.863C131.23 104.777 131.374 104.641 131.491 104.453C131.609 104.262 131.696 104.014 131.755 103.709C131.814 103.404 131.843 103.039 131.843 102.613ZM137.564 99.5605V99.1094C137.564 98.7852 137.635 98.4902 137.775 98.2246C137.916 97.959 138.121 97.7461 138.391 97.5859C138.66 97.4258 138.984 97.3457 139.363 97.3457C139.754 97.3457 140.082 97.4258 140.348 97.5859C140.617 97.7461 140.822 97.959 140.963 98.2246C141.104 98.4902 141.174 98.7852 141.174 99.1094V99.5605C141.174 99.877 141.104 100.168 140.963 100.434C140.826 100.699 140.623 100.912 140.354 101.072C140.088 101.232 139.762 101.312 139.375 101.312C138.992 101.312 138.664 101.232 138.391 101.072C138.121 100.912 137.916 100.699 137.775 100.434C137.635 100.168 137.564 99.877 137.564 99.5605ZM138.543 99.1094V99.5605C138.543 99.7168 138.572 99.8652 138.631 100.006C138.693 100.146 138.787 100.26 138.912 100.346C139.037 100.432 139.191 100.475 139.375 100.475C139.562 100.475 139.715 100.432 139.832 100.346C139.953 100.26 140.043 100.146 140.102 100.006C140.16 99.8652 140.189 99.7168 140.189 99.5605V99.1094C140.189 98.9492 140.158 98.7988 140.096 98.6582C140.037 98.5137 139.947 98.3984 139.826 98.3125C139.705 98.2266 139.551 98.1836 139.363 98.1836C139.184 98.1836 139.031 98.2266 138.906 98.3125C138.785 98.3984 138.693 98.5137 138.631 98.6582C138.572 98.7988 138.543 98.9492 138.543 99.1094ZM141.678 104.365V103.908C141.678 103.588 141.748 103.295 141.889 103.029C142.033 102.764 142.24 102.551 142.51 102.391C142.779 102.23 143.104 102.15 143.482 102.15C143.873 102.15 144.201 102.23 144.467 102.391C144.736 102.551 144.939 102.764 145.076 103.029C145.217 103.295 145.287 103.588 145.287 103.908V104.365C145.287 104.686 145.217 104.979 145.076 105.244C144.939 105.51 144.738 105.723 144.473 105.883C144.207 106.043 143.883 106.123 143.5 106.123C143.113 106.123 142.783 106.043 142.51 105.883C142.24 105.723 142.033 105.51 141.889 105.244C141.748 104.979 141.678 104.686 141.678 104.365ZM142.662 103.908V104.365C142.662 104.521 142.693 104.67 142.756 104.811C142.822 104.951 142.918 105.066 143.043 105.156C143.168 105.242 143.318 105.285 143.494 105.285C143.693 105.285 143.854 105.242 143.975 105.156C144.096 105.066 144.182 104.953 144.232 104.816C144.287 104.676 144.314 104.525 144.314 104.365V103.908C144.314 103.748 144.283 103.598 144.221 103.457C144.162 103.316 144.07 103.203 143.945 103.117C143.824 103.031 143.67 102.988 143.482 102.988C143.299 102.988 143.146 103.031 143.025 103.117C142.904 103.203 142.812 103.316 142.75 103.457C142.691 103.598 142.662 103.748 142.662 103.908ZM143.834 98.6875L139.668 105.355L138.947 104.939L143.113 98.2715L143.834 98.6875ZM151.067 100.867V106H149.655V99.6602H151.003L151.067 100.867ZM153.007 99.6191L152.995 100.932C152.909 100.916 152.815 100.904 152.714 100.896C152.616 100.889 152.518 100.885 152.421 100.885C152.179 100.885 151.966 100.92 151.782 100.99C151.599 101.057 151.444 101.154 151.319 101.283C151.198 101.408 151.104 101.561 151.038 101.74C150.972 101.92 150.932 102.121 150.921 102.344L150.599 102.367C150.599 101.969 150.638 101.6 150.716 101.26C150.794 100.92 150.911 100.621 151.067 100.363C151.227 100.105 151.427 99.9043 151.665 99.7598C151.907 99.6152 152.186 99.543 152.503 99.543C152.589 99.543 152.681 99.5508 152.778 99.5664C152.88 99.582 152.956 99.5996 153.007 99.6191ZM157.315 104.729V101.705C157.315 101.479 157.274 101.283 157.192 101.119C157.11 100.955 156.985 100.828 156.817 100.738C156.653 100.648 156.446 100.604 156.196 100.604C155.965 100.604 155.766 100.643 155.598 100.721C155.43 100.799 155.299 100.904 155.205 101.037C155.112 101.17 155.065 101.32 155.065 101.488H153.659C153.659 101.238 153.719 100.996 153.84 100.762C153.961 100.527 154.137 100.318 154.368 100.135C154.598 99.9512 154.873 99.8066 155.194 99.7012C155.514 99.5957 155.873 99.543 156.272 99.543C156.748 99.543 157.17 99.623 157.537 99.7832C157.909 99.9434 158.2 100.186 158.41 100.51C158.625 100.83 158.733 101.232 158.733 101.717V104.535C158.733 104.824 158.752 105.084 158.791 105.314C158.834 105.541 158.895 105.738 158.973 105.906V106H157.526C157.459 105.848 157.407 105.654 157.368 105.42C157.332 105.182 157.315 104.951 157.315 104.729ZM157.52 102.145L157.532 103.018H156.518C156.256 103.018 156.026 103.043 155.826 103.094C155.627 103.141 155.461 103.211 155.328 103.305C155.196 103.398 155.096 103.512 155.03 103.645C154.963 103.777 154.93 103.928 154.93 104.096C154.93 104.264 154.969 104.418 155.047 104.559C155.125 104.695 155.239 104.803 155.387 104.881C155.539 104.959 155.723 104.998 155.938 104.998C156.227 104.998 156.479 104.939 156.694 104.822C156.912 104.701 157.084 104.555 157.209 104.383C157.334 104.207 157.401 104.041 157.409 103.885L157.866 104.512C157.819 104.672 157.739 104.844 157.625 105.027C157.512 105.211 157.364 105.387 157.18 105.555C157 105.719 156.784 105.854 156.53 105.959C156.28 106.064 155.991 106.117 155.662 106.117C155.248 106.117 154.879 106.035 154.555 105.871C154.231 105.703 153.977 105.479 153.793 105.197C153.61 104.912 153.518 104.59 153.518 104.23C153.518 103.895 153.58 103.598 153.705 103.34C153.834 103.078 154.022 102.859 154.268 102.684C154.518 102.508 154.823 102.375 155.182 102.285C155.541 102.191 155.951 102.145 156.412 102.145H157.52ZM160.275 97H161.687V104.646L161.552 106H160.275V97ZM165.824 102.771V102.895C165.824 103.363 165.771 103.795 165.666 104.189C165.564 104.58 165.408 104.92 165.197 105.209C164.99 105.498 164.732 105.723 164.424 105.883C164.119 106.039 163.765 106.117 163.363 106.117C162.969 106.117 162.625 106.043 162.332 105.895C162.039 105.746 161.793 105.535 161.594 105.262C161.398 104.988 161.24 104.662 161.119 104.283C160.998 103.904 160.912 103.486 160.861 103.029V102.637C160.912 102.176 160.998 101.758 161.119 101.383C161.24 101.004 161.398 100.678 161.594 100.404C161.793 100.127 162.037 99.9141 162.326 99.7656C162.619 99.6172 162.961 99.543 163.351 99.543C163.758 99.543 164.115 99.6211 164.424 99.7773C164.736 99.9336 164.996 100.156 165.203 100.445C165.41 100.73 165.564 101.07 165.666 101.465C165.771 101.859 165.824 102.295 165.824 102.771ZM164.412 102.895V102.771C164.412 102.486 164.388 102.219 164.342 101.969C164.295 101.715 164.217 101.492 164.107 101.301C164.002 101.109 163.857 100.959 163.674 100.85C163.494 100.736 163.269 100.68 163 100.68C162.75 100.68 162.535 100.723 162.355 100.809C162.176 100.895 162.025 101.012 161.904 101.16C161.783 101.309 161.687 101.48 161.617 101.676C161.551 101.871 161.506 102.082 161.482 102.309V103.369C161.517 103.662 161.592 103.932 161.705 104.178C161.822 104.42 161.986 104.615 162.197 104.764C162.408 104.908 162.679 104.98 163.011 104.98C163.273 104.98 163.494 104.928 163.674 104.822C163.853 104.717 163.996 104.57 164.101 104.383C164.211 104.191 164.289 103.969 164.336 103.715C164.386 103.461 164.412 103.188 164.412 102.895ZM170.654 104.729V101.705C170.654 101.479 170.612 101.283 170.53 101.119C170.448 100.955 170.323 100.828 170.155 100.738C169.991 100.648 169.784 100.604 169.534 100.604C169.304 100.604 169.105 100.643 168.937 100.721C168.769 100.799 168.638 100.904 168.544 101.037C168.45 101.17 168.404 101.32 168.404 101.488H166.997C166.997 101.238 167.058 100.996 167.179 100.762C167.3 100.527 167.476 100.318 167.706 100.135C167.937 99.9512 168.212 99.8066 168.532 99.7012C168.853 99.5957 169.212 99.543 169.611 99.543C170.087 99.543 170.509 99.623 170.876 99.7832C171.247 99.9434 171.538 100.186 171.749 100.51C171.964 100.83 172.071 101.232 172.071 101.717V104.535C172.071 104.824 172.091 105.084 172.13 105.314C172.173 105.541 172.234 105.738 172.312 105.906V106H170.864C170.798 105.848 170.745 105.654 170.706 105.42C170.671 105.182 170.654 104.951 170.654 104.729ZM170.859 102.145L170.87 103.018H169.857C169.595 103.018 169.364 103.043 169.165 103.094C168.966 103.141 168.8 103.211 168.667 103.305C168.534 103.398 168.435 103.512 168.368 103.645C168.302 103.777 168.269 103.928 168.269 104.096C168.269 104.264 168.308 104.418 168.386 104.559C168.464 104.695 168.577 104.803 168.726 104.881C168.878 104.959 169.062 104.998 169.277 104.998C169.566 104.998 169.818 104.939 170.032 104.822C170.251 104.701 170.423 104.555 170.548 104.383C170.673 104.207 170.739 104.041 170.747 103.885L171.204 104.512C171.157 104.672 171.077 104.844 170.964 105.027C170.851 105.211 170.702 105.387 170.519 105.555C170.339 105.719 170.122 105.854 169.868 105.959C169.618 106.064 169.329 106.117 169.001 106.117C168.587 106.117 168.218 106.035 167.894 105.871C167.57 105.703 167.316 105.479 167.132 105.197C166.948 104.912 166.857 104.59 166.857 104.23C166.857 103.895 166.919 103.598 167.044 103.34C167.173 103.078 167.361 102.859 167.607 102.684C167.857 102.508 168.161 102.375 168.521 102.285C168.88 102.191 169.29 102.145 169.751 102.145H170.859ZM176.514 99.6602V100.691H172.94V99.6602H176.514ZM173.971 98.1074H175.383V104.248C175.383 104.443 175.411 104.594 175.465 104.699C175.524 104.801 175.604 104.869 175.706 104.904C175.807 104.939 175.926 104.957 176.063 104.957C176.161 104.957 176.255 104.951 176.344 104.939C176.434 104.928 176.506 104.916 176.561 104.904L176.567 105.982C176.45 106.018 176.313 106.049 176.157 106.076C176.005 106.104 175.829 106.117 175.63 106.117C175.305 106.117 175.018 106.061 174.768 105.947C174.518 105.83 174.323 105.641 174.182 105.379C174.042 105.117 173.971 104.77 173.971 104.336V98.1074Z" fill="black"/>
<g style="mix-blend-mode:luminosity">
<path d="M86.5197 51.4688V60H85.3889V51.4688H86.5197ZM91.6701 51.4688L88.1252 55.4473L86.133 57.5156L85.9455 56.3086L87.4455 54.6562L90.3108 51.4688H91.6701ZM90.5803 60L87.4221 55.8398L88.0959 54.9434L91.9279 60H90.5803ZM98.1459 59.0801V60H93.8802V59.0801H98.1459ZM94.1029 51.4688V60H92.972V51.4688H94.1029ZM104.053 51.4688H105.178V57.2402C105.178 57.8809 105.036 58.4141 104.751 58.8398C104.465 59.2656 104.086 59.5859 103.614 59.8008C103.145 60.0117 102.635 60.1172 102.084 60.1172C101.506 60.1172 100.983 60.0117 100.514 59.8008C100.049 59.5859 99.6802 59.2656 99.4068 58.8398C99.1372 58.4141 99.0025 57.8809 99.0025 57.2402V51.4688H100.122V57.2402C100.122 57.6855 100.204 58.0527 100.368 58.3418C100.532 58.6309 100.76 58.8457 101.053 58.9863C101.35 59.127 101.694 59.1973 102.084 59.1973C102.479 59.1973 102.823 59.127 103.116 58.9863C103.413 58.8457 103.643 58.6309 103.807 58.3418C103.971 58.0527 104.053 57.6855 104.053 57.2402V51.4688ZM110.043 56.0098H107.881L107.869 55.1016H109.832C110.156 55.1016 110.439 55.0469 110.681 54.9375C110.924 54.8281 111.111 54.6719 111.244 54.4688C111.381 54.2617 111.449 54.0156 111.449 53.7305C111.449 53.418 111.388 53.1641 111.267 52.9688C111.15 52.7695 110.968 52.625 110.722 52.5352C110.48 52.4414 110.172 52.3945 109.797 52.3945H108.132V60H107.002V51.4688H109.797C110.234 51.4688 110.625 51.5137 110.968 51.6035C111.312 51.6895 111.603 51.8262 111.841 52.0137C112.084 52.1973 112.267 52.4316 112.392 52.7168C112.517 53.002 112.58 53.3438 112.58 53.7422C112.58 54.0938 112.49 54.4121 112.31 54.6973C112.131 54.9785 111.881 55.209 111.56 55.3887C111.244 55.5684 110.873 55.6836 110.447 55.7344L110.043 56.0098ZM109.99 60H107.435L108.074 59.0801H109.99C110.349 59.0801 110.654 59.0176 110.904 58.8926C111.158 58.7676 111.351 58.5918 111.484 58.3652C111.617 58.1348 111.683 57.8633 111.683 57.5508C111.683 57.2344 111.627 56.9609 111.513 56.7305C111.4 56.5 111.222 56.3223 110.98 56.1973C110.738 56.0723 110.425 56.0098 110.043 56.0098H108.431L108.443 55.1016H110.646L110.886 55.4297C111.297 55.4648 111.644 55.582 111.929 55.7812C112.215 55.9766 112.431 56.2266 112.58 56.5312C112.732 56.8359 112.808 57.1719 112.808 57.5391C112.808 58.0703 112.691 58.5195 112.457 58.8867C112.226 59.25 111.9 59.5273 111.478 59.7188C111.056 59.9062 110.56 60 109.99 60ZM114.884 51.4688H115.979L118.774 58.4238L121.563 51.4688H122.665L119.196 60H118.341L114.884 51.4688ZM114.526 51.4688H115.493L115.651 56.6719V60H114.526V51.4688ZM122.05 51.4688H123.016V60H121.891V56.6719L122.05 51.4688ZM130.471 59.0801V60H125.953V59.0801H130.471ZM126.182 51.4688V60H125.051V51.4688H126.182ZM129.873 55.1367V56.0566H125.953V55.1367H129.873ZM130.412 51.4688V52.3945H125.953V51.4688H130.412ZM134.228 60H132.446L132.458 59.0801H134.228C134.837 59.0801 135.345 58.9531 135.751 58.6992C136.157 58.4414 136.462 58.082 136.665 57.6211C136.872 57.1562 136.976 56.6133 136.976 55.9922V55.4707C136.976 54.9824 136.917 54.5488 136.8 54.1699C136.683 53.7871 136.511 53.4648 136.284 53.2031C136.058 52.9375 135.78 52.7363 135.452 52.5996C135.128 52.4629 134.755 52.3945 134.333 52.3945H132.411V51.4688H134.333C134.892 51.4688 135.401 51.5625 135.862 51.75C136.323 51.9336 136.72 52.2012 137.052 52.5527C137.388 52.9004 137.646 53.3223 137.825 53.8184C138.005 54.3105 138.095 54.8652 138.095 55.4824V55.9922C138.095 56.6094 138.005 57.166 137.825 57.6621C137.646 58.1543 137.386 58.5742 137.046 58.9219C136.71 59.2695 136.304 59.5371 135.827 59.7246C135.355 59.9082 134.821 60 134.228 60ZM133.05 51.4688V60H131.919V51.4688H133.05ZM145.016 59.0801V60H140.75V59.0801H145.016ZM140.973 51.4688V60H139.842V51.4688H140.973ZM151.779 59.0801V60H147.261V59.0801H151.779ZM147.49 51.4688V60H146.359V51.4688H147.49ZM151.181 55.1367V56.0566H147.261V55.1367H151.181ZM151.72 51.4688V52.3945H147.261V51.4688H151.72ZM153.585 51.4688H154.68L157.475 58.4238L160.264 51.4688H161.366L157.897 60H157.042L153.585 51.4688ZM153.227 51.4688H154.194L154.352 56.6719V60H153.227V51.4688ZM160.751 51.4688H161.717V60H160.592V56.6719L160.751 51.4688ZM164.109 51.4688H165.205L168 58.4238L170.789 51.4688H171.89L168.422 60H167.566L164.109 51.4688ZM163.752 51.4688H164.718L164.877 56.6719V60H163.752V51.4688ZM171.275 51.4688H172.242V60H171.117V56.6719L171.275 51.4688ZM179.696 59.0801V60H175.179V59.0801H179.696ZM175.407 51.4688V60H174.276V51.4688H175.407ZM179.099 55.1367V56.0566H175.179V55.1367H179.099ZM179.638 51.4688V52.3945H175.179V51.4688H179.638ZM181.145 51.4688H183.969C184.609 51.4688 185.15 51.5664 185.592 51.7617C186.037 51.957 186.375 52.2461 186.605 52.6289C186.84 53.0078 186.957 53.4746 186.957 54.0293C186.957 54.4199 186.877 54.7773 186.717 55.1016C186.561 55.4219 186.334 55.6953 186.037 55.9219C185.744 56.1445 185.393 56.3105 184.982 56.4199L184.666 56.543H182.012L182 55.623H184.004C184.41 55.623 184.748 55.5527 185.018 55.4121C185.287 55.2676 185.49 55.0742 185.627 54.832C185.764 54.5898 185.832 54.3223 185.832 54.0293C185.832 53.7012 185.768 53.4141 185.639 53.168C185.51 52.9219 185.307 52.7324 185.029 52.5996C184.756 52.4629 184.402 52.3945 183.969 52.3945H182.275V60H181.145V51.4688ZM186.131 60L184.057 56.1328L185.234 56.127L187.338 59.9297V60H186.131ZM192.743 51.4688V60H191.612V51.4688H192.743ZM196.317 55.3066V56.2324H192.496V55.3066H196.317ZM196.897 51.4688V52.3945H192.496V51.4688H196.897ZM200.455 52.2246L197.63 60H196.476L199.728 51.4688H200.472L200.455 52.2246ZM202.822 60L199.992 52.2246L199.974 51.4688H200.718L203.982 60H202.822ZM202.675 56.8418V57.7676H197.882V56.8418H202.675ZM198.984 49.8574C198.984 49.6309 199.039 49.4258 199.148 49.2422C199.261 49.0586 199.412 48.9121 199.599 48.8027C199.791 48.6934 200.005 48.6387 200.244 48.6387C200.599 48.6387 200.898 48.7578 201.14 48.9961C201.382 49.2344 201.503 49.5215 201.503 49.8574C201.503 50.084 201.447 50.2891 201.333 50.4727C201.224 50.6523 201.074 50.7949 200.882 50.9004C200.695 51.002 200.482 51.0527 200.244 51.0527C199.888 51.0527 199.589 50.9395 199.347 50.7129C199.105 50.4863 198.984 50.2012 198.984 49.8574ZM199.564 49.8574C199.564 50.0293 199.626 50.1855 199.751 50.3262C199.88 50.4629 200.044 50.5312 200.244 50.5312C200.443 50.5312 200.605 50.4648 200.73 50.332C200.859 50.1953 200.923 50.0371 200.923 49.8574C200.923 49.6738 200.859 49.5137 200.73 49.377C200.605 49.2363 200.443 49.166 200.244 49.166C200.044 49.166 199.88 49.2363 199.751 49.377C199.626 49.5137 199.564 49.6738 199.564 49.8574ZM205.173 51.4688H207.997C208.637 51.4688 209.178 51.5664 209.62 51.7617C210.065 51.957 210.403 52.2461 210.633 52.6289C210.868 53.0078 210.985 53.4746 210.985 54.0293C210.985 54.4199 210.905 54.7773 210.745 55.1016C210.589 55.4219 210.362 55.6953 210.065 55.9219C209.772 56.1445 209.421 56.3105 209.01 56.4199L208.694 56.543H206.04L206.028 55.623H208.032C208.438 55.623 208.776 55.5527 209.046 55.4121C209.315 55.2676 209.518 55.0742 209.655 54.832C209.792 54.5898 209.86 54.3223 209.86 54.0293C209.86 53.7012 209.796 53.4141 209.667 53.168C209.538 52.9219 209.335 52.7324 209.057 52.5996C208.784 52.4629 208.43 52.3945 207.997 52.3945H206.303V60H205.173V51.4688ZM210.159 60L208.085 56.1328L209.262 56.127L211.366 59.9297V60H210.159ZM91.7809 75.0801V76H87.2633V75.0801H91.7809ZM87.4918 67.4688V76H86.361V67.4688H87.4918ZM91.1832 71.1367V72.0566H87.2633V71.1367H91.1832ZM91.7223 67.4688V68.3945H87.2633V67.4688H91.7223ZM99.7918 67.4688V76H98.6551L94.3601 69.4199V76H93.2293V67.4688H94.3601L98.6726 74.0664V67.4688H99.7918ZM110.288 75.0801V76H105.771V75.0801H110.288ZM105.999 67.4688V76H104.868V67.4688H105.999ZM109.691 71.1367V72.0566H105.771V71.1367H109.691ZM110.23 67.4688V68.3945H105.771V67.4688H110.23ZM112.867 67.4688V76H111.737V67.4688H112.867ZM118.018 67.4688L114.473 71.4473L112.481 73.5156L112.293 72.3086L113.793 70.6562L116.658 67.4688H118.018ZM116.928 76L113.77 71.8398L114.444 70.9434L118.276 76H116.928ZM123.867 73.8438C123.867 73.6445 123.835 73.4688 123.773 73.3164C123.714 73.1602 123.609 73.0195 123.456 72.8945C123.308 72.7695 123.101 72.6504 122.835 72.5371C122.574 72.4238 122.242 72.3086 121.839 72.1914C121.417 72.0664 121.037 71.9277 120.697 71.7754C120.357 71.6191 120.066 71.4414 119.824 71.2422C119.581 71.043 119.396 70.8145 119.267 70.5566C119.138 70.2988 119.074 70.0039 119.074 69.6719C119.074 69.3398 119.142 69.0332 119.279 68.752C119.415 68.4707 119.611 68.2266 119.865 68.0195C120.122 67.8086 120.429 67.6445 120.785 67.5273C121.14 67.4102 121.537 67.3516 121.974 67.3516C122.615 67.3516 123.158 67.4746 123.603 67.7207C124.052 67.9629 124.394 68.2812 124.628 68.6758C124.863 69.0664 124.98 69.4844 124.98 69.9297H123.855C123.855 69.6094 123.787 69.3262 123.65 69.0801C123.513 68.8301 123.306 68.6348 123.029 68.4941C122.751 68.3496 122.4 68.2773 121.974 68.2773C121.572 68.2773 121.24 68.3379 120.978 68.459C120.716 68.5801 120.521 68.7441 120.392 68.9512C120.267 69.1582 120.204 69.3945 120.204 69.6602C120.204 69.8398 120.242 70.0039 120.316 70.1523C120.394 70.2969 120.513 70.4316 120.673 70.5566C120.837 70.6816 121.044 70.7969 121.294 70.9023C121.548 71.0078 121.851 71.1094 122.203 71.207C122.687 71.3438 123.105 71.4961 123.456 71.6641C123.808 71.832 124.097 72.0215 124.324 72.2324C124.554 72.4395 124.724 72.6758 124.833 72.9414C124.947 73.2031 125.003 73.5 125.003 73.832C125.003 74.1797 124.933 74.4941 124.792 74.7754C124.652 75.0566 124.451 75.2969 124.189 75.4961C123.927 75.6953 123.613 75.8496 123.246 75.959C122.882 76.0645 122.476 76.1172 122.027 76.1172C121.632 76.1172 121.244 76.0625 120.861 75.9531C120.482 75.8438 120.136 75.6797 119.824 75.4609C119.515 75.2422 119.267 74.9727 119.079 74.6523C118.896 74.3281 118.804 73.9531 118.804 73.5273H119.929C119.929 73.8203 119.986 74.0723 120.099 74.2832C120.212 74.4902 120.367 74.6621 120.562 74.7988C120.761 74.9355 120.986 75.0371 121.236 75.1035C121.49 75.166 121.753 75.1973 122.027 75.1973C122.421 75.1973 122.755 75.1426 123.029 75.0332C123.302 74.9238 123.509 74.7676 123.65 74.5645C123.794 74.3613 123.867 74.1211 123.867 73.8438ZM129.645 67.4688V76H128.532V67.4688H129.645ZM132.387 67.4688V68.3945H125.795V67.4688H132.387ZM133.701 67.4688H136.525C137.166 67.4688 137.707 67.5664 138.148 67.7617C138.593 67.957 138.931 68.2461 139.162 68.6289C139.396 69.0078 139.513 69.4746 139.513 70.0293C139.513 70.4199 139.433 70.7773 139.273 71.1016C139.117 71.4219 138.89 71.6953 138.593 71.9219C138.3 72.1445 137.949 72.3105 137.539 72.4199L137.222 72.543H134.568L134.556 71.623H136.56C136.966 71.623 137.304 71.5527 137.574 71.4121C137.843 71.2676 138.047 71.0742 138.183 70.832C138.32 70.5898 138.388 70.3223 138.388 70.0293C138.388 69.7012 138.324 69.4141 138.195 69.168C138.066 68.9219 137.863 68.7324 137.586 68.5996C137.312 68.4629 136.959 68.3945 136.525 68.3945H134.832V76H133.701V67.4688ZM138.687 76L136.613 72.1328L137.791 72.127L139.894 75.9297V76H138.687ZM144.302 68.2246L141.477 76H140.323L143.575 67.4688H144.319L144.302 68.2246ZM146.669 76L143.839 68.2246L143.821 67.4688H144.565L147.829 76H146.669ZM146.522 72.8418V73.7676H141.729V72.8418H146.522ZM155.325 67.4219V76H154.241V68.7754L152.056 69.5723V68.5938L155.155 67.4219H155.325ZM163.916 71.0547V72.3555C163.916 73.0547 163.854 73.6445 163.729 74.125C163.604 74.6055 163.424 74.9922 163.19 75.2852C162.955 75.5781 162.672 75.791 162.34 75.9238C162.012 76.0527 161.641 76.1172 161.227 76.1172C160.899 76.1172 160.596 76.0762 160.319 75.9941C160.041 75.9121 159.791 75.7812 159.569 75.6016C159.35 75.418 159.162 75.1797 159.006 74.8867C158.85 74.5938 158.731 74.2383 158.649 73.8203C158.567 73.4023 158.526 72.9141 158.526 72.3555V71.0547C158.526 70.3555 158.588 69.7695 158.713 69.2969C158.842 68.8242 159.024 68.4453 159.258 68.1602C159.492 67.8711 159.774 67.6641 160.102 67.5391C160.434 67.4141 160.805 67.3516 161.215 67.3516C161.547 67.3516 161.852 67.3926 162.129 67.4746C162.41 67.5527 162.66 67.6797 162.879 67.8555C163.098 68.0273 163.284 68.2578 163.436 68.5469C163.592 68.832 163.711 69.1816 163.793 69.5957C163.875 70.0098 163.916 70.4961 163.916 71.0547ZM162.826 72.5312V70.873C162.826 70.4902 162.803 70.1543 162.756 69.8652C162.713 69.5723 162.649 69.3223 162.563 69.1152C162.477 68.9082 162.367 68.7402 162.235 68.6113C162.106 68.4824 161.955 68.3887 161.784 68.3301C161.616 68.2676 161.426 68.2363 161.215 68.2363C160.957 68.2363 160.729 68.2852 160.53 68.3828C160.33 68.4766 160.162 68.627 160.026 68.834C159.893 69.041 159.791 69.3125 159.721 69.6484C159.651 69.9844 159.616 70.3926 159.616 70.873V72.5312C159.616 72.9141 159.637 73.252 159.68 73.5449C159.727 73.8379 159.795 74.0918 159.885 74.3066C159.975 74.5176 160.084 74.6914 160.213 74.8281C160.342 74.9648 160.491 75.0664 160.659 75.1328C160.83 75.1953 161.02 75.2266 161.227 75.2266C161.492 75.2266 161.725 75.1758 161.924 75.0742C162.123 74.9727 162.289 74.8145 162.422 74.5996C162.559 74.3809 162.66 74.1016 162.727 73.7617C162.793 73.418 162.826 73.0078 162.826 72.5312ZM165.265 69.5605V69.1094C165.265 68.7852 165.335 68.4902 165.476 68.2246C165.617 67.959 165.818 67.7461 166.08 67.5859C166.341 67.4258 166.652 67.3457 167.011 67.3457C167.378 67.3457 167.691 67.4258 167.949 67.5859C168.21 67.7461 168.412 67.959 168.552 68.2246C168.693 68.4902 168.763 68.7852 168.763 69.1094V69.5605C168.763 69.877 168.693 70.168 168.552 70.4336C168.415 70.6992 168.216 70.9121 167.955 71.0723C167.697 71.2324 167.386 71.3125 167.023 71.3125C166.66 71.3125 166.345 71.2324 166.08 71.0723C165.818 70.9121 165.617 70.6992 165.476 70.4336C165.335 70.168 165.265 69.877 165.265 69.5605ZM166.08 69.1094V69.5605C166.08 69.7402 166.113 69.9102 166.179 70.0703C166.249 70.2305 166.355 70.3613 166.496 70.4629C166.636 70.5605 166.812 70.6094 167.023 70.6094C167.234 70.6094 167.408 70.5605 167.544 70.4629C167.681 70.3613 167.783 70.2305 167.849 70.0703C167.915 69.9102 167.949 69.7402 167.949 69.5605V69.1094C167.949 68.9258 167.914 68.7539 167.843 68.5938C167.777 68.4297 167.673 68.2988 167.533 68.2012C167.396 68.0996 167.222 68.0488 167.011 68.0488C166.804 68.0488 166.63 68.0996 166.49 68.2012C166.353 68.2988 166.249 68.4297 166.179 68.5938C166.113 68.7539 166.08 68.9258 166.08 69.1094ZM169.419 74.3652V73.9082C169.419 73.5879 169.49 73.2949 169.63 73.0293C169.771 72.7637 169.972 72.5508 170.234 72.3906C170.496 72.2305 170.806 72.1504 171.165 72.1504C171.533 72.1504 171.845 72.2305 172.103 72.3906C172.365 72.5508 172.566 72.7637 172.706 73.0293C172.847 73.2949 172.917 73.5879 172.917 73.9082V74.3652C172.917 74.6855 172.847 74.9785 172.706 75.2441C172.57 75.5098 172.371 75.7227 172.109 75.8828C171.851 76.043 171.54 76.123 171.177 76.123C170.814 76.123 170.501 76.043 170.24 75.8828C169.978 75.7227 169.775 75.5098 169.63 75.2441C169.49 74.9785 169.419 74.6855 169.419 74.3652ZM170.234 73.9082V74.3652C170.234 74.5449 170.267 74.7168 170.333 74.8809C170.404 75.041 170.509 75.1719 170.65 75.2734C170.79 75.3711 170.966 75.4199 171.177 75.4199C171.388 75.4199 171.562 75.3711 171.699 75.2734C171.839 75.1719 171.943 75.041 172.009 74.8809C172.076 74.7207 172.109 74.5488 172.109 74.3652V73.9082C172.109 73.7246 172.074 73.5527 172.003 73.3926C171.937 73.2324 171.833 73.1035 171.693 73.0059C171.556 72.9043 171.38 72.8535 171.165 72.8535C170.958 72.8535 170.785 72.9043 170.644 73.0059C170.507 73.1035 170.404 73.2324 170.333 73.3926C170.267 73.5527 170.234 73.7246 170.234 73.9082ZM171.435 68.6816L167.269 75.3496L166.66 74.9629L170.826 68.2949L171.435 68.6816ZM177.502 67.4688H180.326C180.967 67.4688 181.508 67.5664 181.949 67.7617C182.394 67.957 182.732 68.2461 182.963 68.6289C183.197 69.0078 183.314 69.4746 183.314 70.0293C183.314 70.4199 183.234 70.7773 183.074 71.1016C182.918 71.4219 182.691 71.6953 182.394 71.9219C182.101 72.1445 181.75 72.3105 181.34 72.4199L181.023 72.543H178.369L178.357 71.623H180.361C180.767 71.623 181.105 71.5527 181.375 71.4121C181.644 71.2676 181.847 71.0742 181.984 70.832C182.121 70.5898 182.189 70.3223 182.189 70.0293C182.189 69.7012 182.125 69.4141 181.996 69.168C181.867 68.9219 181.664 68.7324 181.386 68.5996C181.113 68.4629 180.76 68.3945 180.326 68.3945H178.633V76H177.502V67.4688ZM182.488 76L180.414 72.1328L181.592 72.127L183.695 75.9297V76H182.488ZM188.102 68.2246L185.278 76H184.124L187.376 67.4688H188.12L188.102 68.2246ZM190.47 76L187.64 68.2246L187.622 67.4688H188.366L191.63 76H190.47ZM190.323 72.8418V73.7676H185.53V72.8418H190.323ZM195.861 72.0098H193.699L193.688 71.1016H195.65C195.975 71.1016 196.258 71.0469 196.5 70.9375C196.742 70.8281 196.93 70.6719 197.063 70.4688C197.199 70.2617 197.268 70.0156 197.268 69.7305C197.268 69.418 197.207 69.1641 197.086 68.9688C196.969 68.7695 196.787 68.625 196.541 68.5352C196.299 68.4414 195.99 68.3945 195.615 68.3945H193.951V76H192.82V67.4688H195.615C196.053 67.4688 196.443 67.5137 196.787 67.6035C197.131 67.6895 197.422 67.8262 197.66 68.0137C197.902 68.1973 198.086 68.4316 198.211 68.7168C198.336 69.002 198.398 69.3438 198.398 69.7422C198.398 70.0938 198.309 70.4121 198.129 70.6973C197.949 70.9785 197.699 71.209 197.379 71.3887C197.063 71.5684 196.691 71.6836 196.266 71.7344L195.861 72.0098ZM195.809 76H193.254L193.893 75.0801H195.809C196.168 75.0801 196.473 75.0176 196.723 74.8926C196.977 74.7676 197.17 74.5918 197.303 74.3652C197.436 74.1348 197.502 73.8633 197.502 73.5508C197.502 73.2344 197.445 72.9609 197.332 72.7305C197.219 72.5 197.041 72.3223 196.799 72.1973C196.557 72.0723 196.244 72.0098 195.861 72.0098H194.25L194.262 71.1016H196.465L196.705 71.4297C197.115 71.4648 197.463 71.582 197.748 71.7812C198.033 71.9766 198.25 72.2266 198.398 72.5312C198.551 72.8359 198.627 73.1719 198.627 73.5391C198.627 74.0703 198.51 74.5195 198.275 74.8867C198.045 75.25 197.719 75.5273 197.297 75.7188C196.875 75.9062 196.379 76 195.809 76ZM203.503 68.2246L200.679 76H199.525L202.777 67.4688H203.521L203.503 68.2246ZM205.87 76L203.04 68.2246L203.023 67.4688H203.767L207.03 76H205.87ZM205.724 72.8418V73.7676H200.931V72.8418H205.724ZM210.612 67.4688V76H209.498V67.4688H210.612ZM213.354 67.4688V68.3945H206.762V67.4688H213.354Z" fill="black"/>
</g>
<g style="mix-blend-mode:luminosity">
<path d="M95.9915 31.912C97.2608 32.2667 98.1568 32.864 98.6795 33.704C99.1648 34.4693 99.4075 35.5333 99.4075 36.896C99.4075 37.3253 99.3702 38.0627 99.2955 39.108C99.2395 40.06 99.2208 40.8067 99.2395 41.348C98.2128 41.404 97.1022 41.6653 95.9075 42.132C96.2995 40.788 96.4955 39.5653 96.4955 38.464C96.4955 35.9627 95.4968 34.712 93.4995 34.712C93.1822 34.712 92.8555 34.74 92.5195 34.796C92.5008 35.2813 92.5008 36.5227 92.5195 38.52V41.964C92.3142 41.964 91.7822 42.1133 90.9235 42.412L89.2435 43C89.4115 39.2293 89.4955 35.2533 89.4955 31.072C89.4955 26.6667 89.4395 24.0907 89.3275 23.344C90.0368 23.2133 91.0728 22.98 92.4355 22.644C92.4728 23.6333 92.4915 25.1173 92.4915 27.096C92.4915 29.056 92.5102 30.5307 92.5475 31.52C93.2195 31.4267 94.1808 30.2227 95.4315 27.908C96.6262 25.7053 97.2982 24.0813 97.4475 23.036L100.752 22.868C100.509 24.772 100.014 26.424 99.2675 27.824C98.5208 29.2053 97.4288 30.568 95.9915 31.912ZM110.994 36.98C110.676 36.98 108.735 37.3253 105.17 38.016C101.623 38.7067 99.7283 39.108 99.4856 39.22C99.4856 37.7827 99.5509 35.608 99.6816 32.696C99.8123 29.784 99.8776 27.6 99.8776 26.144C99.8776 24.24 99.8029 22.504 99.6536 20.936C99.6536 20.936 99.6629 20.9267 99.6816 20.908C99.7563 20.964 99.9149 20.992 100.158 20.992C101.184 20.992 102.136 20.8613 103.014 20.6C102.995 20.6 102.967 20.656 102.93 20.768C102.818 22.2053 102.762 24.744 102.762 28.384C102.762 30.4 102.78 32.7053 102.818 35.3C102.986 35.3187 104.255 35.104 106.626 34.656C109.295 34.1707 110.658 33.9187 110.714 33.9C110.732 35.0947 110.826 36.1213 110.994 36.98ZM114.578 41.18C112.45 41.2173 110.751 40.676 109.482 39.556C108.157 38.3987 107.466 36.7653 107.41 34.656C107.373 34.5627 107.326 32.7893 107.27 29.336C107.195 25.864 107.186 24.0347 107.242 23.848V23.82C108.101 23.5773 109.547 23.008 111.582 22.112C111.153 23.4933 110.938 25.808 110.938 29.056C110.938 33.7413 111.629 36.3453 113.01 36.868C113.383 37.0173 113.729 37.092 114.046 37.092C114.942 37.092 115.614 36.6253 116.062 35.692C116.435 34.9267 116.585 34.0587 116.51 33.088C116.323 30.512 115.875 26.6293 115.166 21.44L119.674 19.508L120.906 32.976C120.943 33.2933 120.962 33.6107 120.962 33.928C120.962 35.6827 120.505 37.2413 119.59 38.604C118.451 40.284 116.781 41.1427 114.578 41.18ZM129.961 31.576C129.662 31.912 129.242 32.2387 128.701 32.556C129.335 32.7613 129.942 33.368 130.521 34.376C131.099 35.3653 131.361 36.2053 131.305 36.896C131.174 38.5013 130.717 39.7707 129.933 40.704C129.167 41.6373 128.001 42.3187 126.433 42.748C125.686 42.9533 124.585 43.056 123.129 43.056C121.318 43.056 120.413 43 120.413 42.888C120.413 42.888 120.422 42.8787 120.441 42.86C120.441 42.7107 120.478 40.5173 120.553 36.28L120.637 29.756C120.655 29.14 120.683 28.2253 120.721 27.012C120.758 25.9107 120.721 25.0147 120.609 24.324H120.665C120.721 24.3427 121.43 24.1747 122.793 23.82C124.249 23.4467 125.509 23.26 126.573 23.26C127.301 23.26 127.907 23.344 128.393 23.512C130.595 24.2773 131.697 25.64 131.697 27.6C131.697 28.944 131.118 30.2693 129.961 31.576ZM126.041 26.368C125.817 26.368 125.042 26.4893 123.717 26.732L123.829 31.688C124.575 31.5947 125.369 31.2773 126.209 30.736C127.067 30.1947 127.655 29.5973 127.973 28.944C128.141 28.608 128.225 28.2813 128.225 27.964C128.225 27.4227 127.982 27.0027 127.497 26.704C127.105 26.4613 126.619 26.3493 126.041 26.368ZM127.749 37.54C127.805 37.2227 127.833 36.9613 127.833 36.756C127.833 35.2813 126.927 34.544 125.117 34.544C124.725 34.544 124.286 34.5813 123.801 34.656C123.782 34.768 123.763 35.6827 123.745 37.4L123.689 40.172C125.07 39.9667 125.994 39.7427 126.461 39.5C127.151 39.1453 127.581 38.492 127.749 37.54ZM143.79 33.228C143.958 35.5053 144.042 38.1653 144.042 41.208C143.837 41.1893 143.268 41.2827 142.334 41.488C141.42 41.6933 140.888 41.852 140.738 41.964H140.71V41.936C140.636 39.4533 140.598 36.2893 140.598 32.444C140.598 29.084 140.533 25.5747 140.402 21.916C143.781 21.524 147.29 21.0853 150.93 20.6L150.846 20.768C150.772 22.224 150.734 23.232 150.734 23.792C150.436 23.8667 149.213 24.0347 147.066 24.296L143.706 24.716L143.65 29.896C144.714 29.7467 146.31 29.4947 148.438 29.14C148.513 29.532 148.634 30.6053 148.802 32.36C146.954 32.7333 145.284 33.0227 143.79 33.228ZM147.499 40.396C148.227 37.1293 148.955 33.872 149.683 30.624C150.542 26.6667 151.204 23.344 151.671 20.656H151.699C153.248 20.4133 154.508 20.1427 155.479 19.844C156.935 23.2787 158.382 26.7227 159.819 30.176C162.395 36.28 163.683 39.4627 163.683 39.724C163.272 39.8733 162.862 40.1253 162.451 40.48C162.04 40.816 161.658 41.0493 161.303 41.18C159.847 37.708 159.044 35.7387 158.895 35.272C156.599 35.6267 154.144 35.9253 151.531 36.168C151.064 38.408 150.719 40.0133 150.495 40.984C149.954 40.928 149.384 40.8253 148.787 40.676C148.283 40.5453 147.863 40.4707 147.527 40.452C147.508 40.4333 147.499 40.4147 147.499 40.396ZM152.315 33.004C154.424 32.7427 156.002 32.556 157.047 32.444V32.416C155.703 29.056 154.686 26.4707 153.995 24.66L152.315 33.004ZM161.679 23.344C164.666 22.5973 166.672 22.224 167.699 22.224C170.219 22.224 171.824 23.3253 172.515 25.528C172.664 25.9947 172.739 26.48 172.739 26.984C172.739 28.048 172.468 29.0747 171.927 30.064C171.386 31.0533 170.667 31.8653 169.771 32.5C171.059 32.8547 171.703 34.5347 171.703 37.54C171.703 38.1 171.684 38.828 171.647 39.724C171.61 40.6013 171.591 41.1427 171.591 41.348C170.564 41.404 169.454 41.6653 168.259 42.132C168.483 41.3293 168.595 40.228 168.595 38.828C168.595 37.8947 168.548 37.036 168.455 36.252C168.175 35.188 167.466 34.656 166.327 34.656C165.972 34.656 165.487 34.7027 164.871 34.796C164.89 36.4573 164.89 38.8467 164.871 41.964C164.666 41.964 164.134 42.1133 163.275 42.412L161.595 43C161.707 40.592 161.744 37.316 161.707 33.172L161.679 23.344ZM167.111 25.584C166.924 25.6027 166.15 25.7427 164.787 26.004L164.899 31.52C165.683 31.408 166.495 31.0533 167.335 30.456C168.175 29.84 168.744 29.1773 169.043 28.468C169.211 28.076 169.295 27.712 169.295 27.376C169.295 26.7973 169.071 26.34 168.623 26.004C168.212 25.724 167.708 25.584 167.111 25.584ZM170.577 40.396C171.305 37.1293 172.033 33.872 172.761 30.624C173.62 26.6667 174.282 23.344 174.749 20.656H174.777C176.326 20.4133 177.586 20.1427 178.557 19.844C180.013 23.2787 181.46 26.7227 182.897 30.176C185.473 36.28 186.761 39.4627 186.761 39.724C186.35 39.8733 185.94 40.1253 185.529 40.48C185.118 40.816 184.736 41.0493 184.381 41.18C182.925 37.708 182.122 35.7387 181.973 35.272C179.677 35.6267 177.222 35.9253 174.609 36.168C174.142 38.408 173.797 40.0133 173.573 40.984C173.032 40.928 172.462 40.8253 171.865 40.676C171.361 40.5453 170.941 40.4707 170.605 40.452C170.586 40.4333 170.577 40.4147 170.577 40.396ZM175.393 33.004C177.502 32.7427 179.08 32.556 180.125 32.444V32.416C178.781 29.056 177.764 26.4707 177.073 24.66L175.393 33.004ZM189.657 20.628C190.796 20.1987 191.888 19.984 192.933 19.984C195.771 19.984 198.141 21.2347 200.045 23.736C201.8 26.0507 202.677 28.664 202.677 31.576C202.677 32.36 202.593 33.1627 202.425 33.984C202.015 35.9627 201.231 37.5213 200.073 38.66C198.823 39.9107 197.227 40.536 195.285 40.536C193.437 40.536 191.543 39.9667 189.601 38.828C188.033 37.8947 186.783 36.4667 185.849 34.544C185.009 32.7707 184.589 30.904 184.589 28.944C184.589 27.0587 184.991 25.3973 185.793 23.96C186.689 22.392 187.977 21.2813 189.657 20.628ZM191.757 23.624C189.032 24.1467 187.669 25.724 187.669 28.356C187.669 29.8493 188.099 31.3893 188.957 32.976C189.835 34.544 190.917 35.692 192.205 36.42C193.195 36.98 194.137 37.26 195.033 37.26C196.377 37.26 197.469 36.7187 198.309 35.636C199.056 34.628 199.429 33.424 199.429 32.024C199.429 31.2773 199.327 30.568 199.121 29.896C197.852 25.7147 195.397 23.624 191.757 23.624ZM206.082 20.74C207.668 20.74 208.956 21.272 209.946 22.336C210.935 23.4 211.43 24.7347 211.43 26.34C211.43 26.676 211.411 27.012 211.374 27.348V27.376C211.019 27.3573 209.852 27.5533 207.874 27.964C208.284 27.2547 208.49 26.5827 208.49 25.948C208.49 25.2013 208.191 24.6413 207.594 24.268C207.22 24.044 206.847 23.932 206.474 23.932C205.82 23.932 205.223 24.212 204.682 24.772C204.159 25.332 203.954 25.9387 204.066 26.592C204.234 27.6 204.971 28.86 206.278 30.372C208.107 32.5 209.143 33.7507 209.386 34.124C210.02 35.1133 210.338 36.0467 210.338 36.924C210.338 37.3533 210.263 37.764 210.114 38.156C209.778 39.0893 209.348 39.7987 208.826 40.284C208.303 40.7507 207.556 41.1053 206.586 41.348C206.362 41.404 206.119 41.432 205.858 41.432C205.148 41.432 204.355 41.264 203.478 40.928C202.619 40.592 201.947 40.1907 201.462 39.724C202.208 38.436 202.759 37.4467 203.114 36.756C203.282 37.092 203.692 37.372 204.346 37.596C204.887 37.8013 205.382 37.904 205.83 37.904C206.763 37.904 207.23 37.512 207.23 36.728C207.23 36.392 207.155 36.028 207.006 35.636C206.8 35.0947 206.147 34.2733 205.046 33.172C203.664 31.7907 202.759 30.8107 202.33 30.232C201.434 29.0187 200.986 27.824 200.986 26.648C200.986 25.0987 201.443 23.7547 202.358 22.616C203.328 21.3653 204.57 20.74 206.082 20.74Z" fill="#0E0D0D"/>
</g>
<path d="M194.191 106.791C194.074 106.657 194.008 106.476 194.008 106.286C194.008 106.097 194.074 105.916 194.191 105.782L197.494 102.004L194.191 98.227C194.131 98.1612 194.083 98.0824 194.051 97.9954C194.018 97.9083 194.001 97.8146 194 97.7199C193.999 97.6251 194.015 97.5311 194.046 97.4434C194.078 97.3557 194.124 97.276 194.183 97.209C194.241 97.142 194.311 97.089 194.388 97.0531C194.464 97.0173 194.547 96.9992 194.629 97C194.712 97.0009 194.794 97.0205 194.87 97.0579C194.947 97.0953 195.015 97.1497 195.073 97.2179L198.817 101.5C198.934 101.634 199 101.815 199 102.004C199 102.194 198.934 102.375 198.817 102.509L195.073 106.791C194.956 106.925 194.797 107 194.632 107C194.466 107 194.308 106.925 194.191 106.791Z" fill="#0D0D0D"/>
<defs>
<filter id="filter0_d_64_868" x="89" y="87" width="126" height="34" filterUnits="userSpaceOnUse" color-interpolation-filters="sRGB">
<feFlood flood-opacity="0" result="BackgroundImageFix"/>
<feColorMatrix in="SourceAlpha" type="matrix" values="0 0 0 0 0 0 0 0 0 0 0 0 0 0 0 0 0 0 127 0" result="hardAlpha"/>
<feOffset dx="4" dy="4"/>
<feComposite in2="hardAlpha" operator="out"/>
<feColorMatrix type="matrix" values="0 0 0 0 0 0 0 0 0 0 0 0 0 0 0 0 0 0 1 0"/>
<feBlend mode="normal" in2="BackgroundImageFix" result="effect1_dropShadow_64_868"/>
<feBlend mode="normal" in="SourceGraphic" in2="effect1_dropShadow_64_868" result="shape"/>
</filter>
</defs>
</svg>
